<?xml version="1.0" standalone="no"?>
<!DOCTYPE svg PUBLIC "-//W3C//DTD SVG 20010904//EN"
 "http://www.w3.org/TR/2001/REC-SVG-20010904/DTD/svg10.dtd">
<svg version="1.0" xmlns="http://www.w3.org/2000/svg"
 width="1024.000000pt" height="1024.000000pt" viewBox="0 0 1024.000000 1024.000000"
 preserveAspectRatio="xMidYMid meet">

<g transform="translate(0.000000,1024.000000) scale(0.100000,-0.100000)"
fill="#000000" stroke="none">
<path d="M3083 8239 c-382 -49 -701 -323 -820 -705 l-28 -89 -3 -921 -3 -921
-84 -6 c-268 -19 -507 -205 -603 -469 l-27 -73 -3 -1818 -2 -1817 1817 2 1818
3 73 27 c267 97 452 336 469 605 l6 83 756 0 c488 0 788 4 846 11 392 48 726
339 833 727 l27 97 3 2638 2 2637 -2507 -1 c-1380 -1 -2536 -5 -2570 -10z
m4147 -1036 c0 -21 5 -209 10 -418 13 -507 32 -3229 24 -3329 l-7 -79 -226 7
c-124 4 -229 10 -233 14 -13 13 -19 351 -27 1442 -5 619 -12 1065 -17 1078
-10 22 -11 22 -40 -20 -16 -24 -35 -54 -42 -68 -21 -41 -186 -255 -195 -252
-11 4 -30 -18 -43 -48 -14 -33 -22 92 -30 521 l-7 326 48 94 c26 52 51 102 56
111 4 9 52 101 105 205 166 323 194 373 214 373 10 0 45 7 78 15 92 24 284 64
310 64 19 1 22 -4 22 -36z m-1324 -265 c-8 -29 -12 -49 -32 -178 -9 -58 -29
-157 -44 -220 -16 -63 -31 -135 -35 -160 -4 -25 -22 -110 -41 -190 -19 -80
-41 -176 -49 -215 -8 -38 -30 -135 -48 -215 -19 -80 -38 -165 -42 -190 -4 -25
-24 -115 -45 -200 -21 -85 -42 -173 -45 -195 -4 -22 -21 -96 -38 -165 l-31
-125 3 -722 c3 -667 2 -723 -14 -729 -14 -6 -375 13 -382 19 -3 4 -12 442 -18
942 l-5 420 -40 170 c-23 94 -61 256 -85 360 -25 105 -67 285 -94 400 -28 116
-56 239 -64 275 -8 36 -28 119 -45 185 -16 66 -40 174 -52 240 -13 66 -32 149
-42 184 -9 36 -16 66 -15 68 6 5 299 71 349 78 39 6 47 4 51 -12 9 -27 95
-385 118 -488 38 -168 72 -299 93 -364 l22 -64 26 99 c15 54 36 144 47 199 38
186 109 560 116 610 3 28 11 67 17 87 13 44 24 48 173 73 55 9 125 22 155 30
30 7 75 14 99 14 40 1 43 -1 37 -21z m-1566 -297 c0 -10 11 -61 24 -112 13
-52 27 -119 31 -149 3 -30 12 -89 20 -130 18 -94 71 -404 84 -490 5 -36 25
-153 45 -260 19 -107 37 -215 40 -240 6 -45 63 -374 133 -775 20 -115 42 -248
49 -295 6 -47 30 -186 52 -310 23 -124 44 -264 47 -312 6 -78 5 -87 -12 -90
-27 -7 -347 3 -355 11 -4 3 -25 116 -47 250 -23 134 -44 247 -47 252 -6 10
-259 12 -316 3 -42 -7 -42 -8 -58 -144 -6 -52 -22 -150 -35 -217 -14 -67 -25
-125 -25 -129 0 -8 -264 2 -296 12 -21 5 -22 11 -17 87 7 140 23 286 48 452
14 88 29 201 35 250 5 50 27 200 49 335 21 135 42 272 46 305 10 94 33 255 64
445 16 96 34 220 40 275 7 55 27 208 46 340 19 132 45 310 56 395 28 196 35
215 85 224 22 4 66 13 99 21 88 20 115 19 115 -4z m-973 -201 c54 -24 135
-109 168 -174 71 -146 108 -281 137 -501 22 -171 23 -211 23 -810 0 -607 -1
-635 -23 -772 -44 -281 -148 -509 -272 -599 -74 -54 -103 -58 -347 -48 l-218
9 -7 55 c-9 79 -22 2612 -14 2693 9 82 -8 74 245 126 214 45 250 48 308 21z"/>
<path d="M4210 5118 c0 -18 -7 -68 -15 -110 -29 -151 -38 -260 -23 -269 20
-13 92 -11 110 4 16 11 15 20 -1 122 -28 164 -54 285 -63 285 -4 0 -8 -15 -8
-32z"/>
<path d="M3130 5741 l-25 -7 3 -701 c2 -386 7 -724 10 -750 l7 -48 59 -3 c75
-4 96 10 136 91 31 63 31 67 41 283 13 289 2 895 -17 989 -8 42 -25 86 -42
110 -27 39 -30 40 -87 42 -33 1 -71 -2 -85 -6z"/>
</g>
</svg>
